#!OML:ASF F:\VICON\USERDATA\INSTALL\rory3\rory3.ASF
:FULLY-SPECIFIED
:DEGREES
3515
root 4.93939 18.6459 -1.50924 -164.396 59.6079 179.467
lowerback 13.0721 5.03727 -2.16782
upperback 7.7149 7.07335 4.51334
thorax 0.0107866 3.64387 4.98787
lowerneck -6.53215 -11.3853 -7.90981
upperneck 18.5804 -15.9394 10.6046
head 8.34326 -7.07637 3.19892
rclavicle -3.33958e-014 -3.65764e-014
rhumerus -10.1533 22.9893 -82.2237
rradius 55.4368
rwrist 17.3434
rhand -54.7746 13.9399
rfingers 7.12502
rthumb -27.1645 -374.125
lclavicle -3.33958e-014 -3.65764e-014
lhumerus -15.2455 -38.2414 93.6987
lradius 132.232
lwrist 31.6841
lhand -28.2524 27.0477
lfingers 7.12502
lthumb -1.62966 57.0213
rfemur -18.9247 0.702172 16.1968
rtibia 38.9097
rfoot -25.7745 -26.0397
rtoes 2.03669
lfemur -34.5925 6.28076 -27.2188
ltibia 31.4492
lfoot -13.0403 13.3917
ltoes 10.9792
3516
root 4.93768 18.6509 -1.48232 -164.224 60.0963 179.712
lowerback 12.9242 5.00463 -1.93578
upperback 7.70429 7.03078 4.12563
thorax 0.154408 3.62507 4.47367
lowerneck -6.52391 -11.3882 -7.58294
upperneck 18.6009 -16.0256 10.7929
head 8.3463 -7.07722 3.20134
rclavicle 1.28812e-013 3.49861e-014
rhumerus -10.6128 22.3969 -83.0652
rradius 56.0868
rwrist 17.7814
rhand -55.0674 14.3944
rfingers 7.12502
rthumb -27.4446 -373.626
lclavicle 1.28812e-013 3.49861e-014
lhumerus -14.9424 -36.971 92.7083
lradius 132.78
lwrist 33.2659
lhand -27.845 28.1433
lfingers 7.12502
lthumb -1.23619 58.1195
rfemur -18.9815 0.757648 16.5591
rtibia 38.9494
rfoot -25.892 -27.022
rtoes 4.5809
lfemur -34.5678 6.61288 -27.0938
ltibia 31.3679
lfoot -12.9728 13.6302
ltoes 10.6669
3517
root 4.93247 18.6581 -1.45043 -164.266 60.9392 179.907
lowerback 13.0696 5.04682 -1.90882
upperback 7.68933 7.06861 3.80104
thorax 0.100354 3.64477 4.10067
lowerneck -6.35797 -11.301 -7.73902
upperneck 18.6241 -15.9576 11.1291
head 8.36038 -7.03065 3.35308
rclavicle -9.30312e-014 1.08139e-013
rhumerus -11.0695 22.133 -83.749
rradius 56.7656
rwrist 18.1802
rhand -55.2807 14.7667
rfingers 7.12502
rthumb -27.6486 -373.221
lclavicle -9.30312e-014 1.08139e-013
lhumerus -14.7827 -35.4731 91.9456
lradius 133.301
lwrist 34.2489
lhand -27.1749 29.9275
lfingers 7.12502
lthumb -0.588971 59.9065
rfemur -18.9201 1.0063 16.7865
rtibia 38.9475
rfoot -25.3635 -27.8426
rtoes 5.87112
lfemur -34.3747 7.21493 -27.0418
ltibia 31.3114
lfoot -13.0344 13.9109
ltoes 10.7241
3518
root 4.91266 18.6592 -1.43245 -164.359 60.8448 179.628
lowerback 12.9042 4.70203 -1.45223
upperback 7.54011 6.63715 3.44422
thorax 0.155716 3.43919 3.54581
lowerneck -6.23737 -11.2949 -7.6651
upperneck 18.6793 -15.9922 11.2627
head 8.36638 -7.03169 3.38822
rclavicle -7.15625e-014 -9.22361e-014
rhumerus -11.4121 22.1152 -84.4054
rradius 57.3874
rwrist 18.337
rhand -55.3945 13.1746
rfingers 7.12502
rthumb -27.7575 -374.796
lclavicle -7.15625e-014 -9.22361e-014
lhumerus -14.6021 -33.9129 91.2439
lradius 133.315
lwrist 35.5301
lhand -26.8791 29.6959
lfingers 7.12502
lthumb -0.303289 59.6754
rfemur -19.1703 0.500691 16.9758
rtibia 38.916
rfoot -24.6127 -28.579
rtoes 6.95339
lfemur -34.6054 6.67832 -27.0251
ltibia 31.2718
lfoot -12.9811 14.2891
ltoes 10.9017
3519
root 4.90722 18.6666 -1.3861 -164.361 61.7171 180.121
lowerback 13.441 4.80909 -1.42385
upperback 7.53906 6.77163 3.1762
thorax -0.105722 3.5128 3.1848
lowerneck -6.18505 -11.375 -7.2965
upperneck 18.7584 -16.1593 11.2836
head 8.37145 -7.08072 3.32132
rclavicle -8.5875e-014 -1.11319e-014
rhumerus -11.7081 21.8575 -85.1811
rradius 57.8263
rwrist 18.5661
rhand -56.0191 11.5978
rfingers 7.12502
rthumb -28.3544 -376.275
lclavicle -8.5875e-014 -1.11319e-014
lhumerus -14.2999 -32.28 90.3932
lradius 133.475
lwrist 36.8802
lhand -26.4609 31.4639
lfingers 7.12502
lthumb 0.10064 61.4436
rfemur -18.8502 1.12826 17.3935
rtibia 38.7897
rfoot -24.0766 -29.3575
rtoes 6.45059
lfemur -34.2286 7.21568 -26.6717
ltibia 31.2361
lfoot -13.0803 14.6261
ltoes 11.365
3520
root 4.89612 18.6664 -1.34881 -164.147 62.2349 180.5
lowerback 13.5919 4.80433 -1.13233
upperback 7.47137 6.78089 2.87617
thorax -0.191183 3.52594 2.69473
lowerneck -6.1548 -11.4054 -6.97788
upperneck 18.8195 -16.262 11.3734
head 8.37798 -7.09595 3.29189
rclavicle -3.65764e-014 9.85972e-014
rhumerus -11.8591 21.2716 -85.8713
rradius 58.023
rwrist 18.9728
rhand -56.8218 12.4348
rfingers 7.12502
rthumb -29.1213 -375.308
lclavicle -3.65764e-014 9.85972e-014
lhumerus -13.86 -30.7649 89.5106
lradius 133.32
lwrist 38.2796
lhand -26.5187 32.3687
lfingers 7.12502
lthumb 0.0447388 62.3484
rfemur -18.7969 1.2152 17.7667
rtibia 38.6061
rfoot -24.0819 -30.024
rtoes 2.82798
lfemur -34.1947 7.42564 -26.3867
ltibia 31.1759
lfoot -13.0559 14.8779
ltoes 11.6972
3521
root 4.88559 18.6687 -1.32503 -164.226 62.8026 180.47
lowerback 13.5637 4.80506 -0.953994
upperback 7.4176 6.7829 2.56764
thorax -0.177052 3.53082 2.27732
lowerneck -6.08797 -11.386 -6.88556
upperneck 18.8629 -16.2729 11.4888
head 8.38422 -7.08383 3.31853
rclavicle -1.82882e-014 -1.59028e-015
rhumerus -11.8488 20.8274 -86.3866
rradius 58.0825
rwrist 19.3792
rhand -57.4046 13.2252
rfingers 7.12502
rthumb -29.6777 -374.42
lclavicle -1.82882e-014 -1.59028e-015
lhumerus -13.4224 -29.2054 88.7826
lradius 133.047
lwrist 39.7209
lhand -26.9427 33.219
lfingers 7.12502
lthumb -0.36477 63.1984
rfemur -18.7444 1.32856 17.839
rtibia 38.3302
rfoot -24.7152 -30.5662
rtoes -1.3239
lfemur -34.1188 7.44775 -26.3302
ltibia 31.1033
lfoot -13.1612 15.3068
ltoes 11.9093
3522
root 4.87584 18.6737 -1.31125 -164.383 63.39 180.36
lowerback 13.4531 4.81706 -0.742832
upperback 7.3787 6.80507 2.27765
thorax -0.102628 3.5465 1.86763
lowerneck -5.95951 -11.4003 -6.80587
upperneck 18.9391 -16.3106 11.5073
head 8.38531 -7.094 3.31539
rclavicle 1.27222e-014 -4.13472e-014
rhumerus -11.8616 20.5796 -86.756
rradius 58.1712
rwrist 19.704
rhand -57.9202 12.4857
rfingers 7.12502
rthumb -30.1697 -375.071
lclavicle 1.27222e-014 -4.13472e-014
lhumerus -12.9965 -27.7048 88.1122
lradius 132.679
lwrist 41.2827
lhand -27.6038 34.0485
lfingers 7.12502
lthumb -1.00328 64.0258
rfemur -18.671 1.41946 17.8272
rtibia 38.0305
rfoot -25.4635 -30.9721
rtoes -2.41666
lfemur -33.9992 7.35351 -26.3044
ltibia 30.9932
lfoot -13.3034 15.8736
ltoes 12.3709
3523
root 4.86318 18.679 -1.29048 -164.659 63.8241 180.133
lowerback 13.4451 4.7985 -0.670436
upperback 7.33266 6.77668 2.09538
thorax -0.115985 3.53367 1.64234
lowerneck -5.8282 -11.3966 -6.8302
upperneck 18.9799 -16.3209 11.5887
head 8.38588 -7.09506 3.35212
rclavicle -7.71285e-014 2.8625e-014
rhumerus -11.9296 20.543 -87.001
rradius 58.4066
rwrist 19.8967
rhand -58.357 11.4838
rfingers 7.12502
rthumb -30.5864 -375.996
lclavicle -7.71285e-014 2.8625e-014
lhumerus -12.8319 -27.0762 87.8093
lradius 132.539
lwrist 44.6341
lhand -32.4258 33.7979
lfingers 7.12502
lthumb -5.6598 63.7023
rfemur -18.6404 1.48864 17.8042
rtibia 37.713
rfoot -25.838 -31.3306
rtoes -1.32562
lfemur -33.8881 7.10953 -26.261
ltibia 30.8614
lfoot -13.4461 16.4071
ltoes 13.0141
3524
root 4.84914 18.6838 -1.26169 -165.112 64.2702 179.694
lowerback 13.514 4.80262 -0.838502
upperback 7.27568 6.75125 1.9531
thorax -0.212671 3.51584 1.58147
lowerneck -5.75946 -11.3692 -7.05266
upperneck 19.0491 -16.3052 11.8099
head 8.43478 -7.0819 3.46399
rclavicle 1.51871e-013 -3.02153e-014
rhumerus -11.8973 20.6914 -87.2127
rradius 58.6208
rwrist 19.6771
rhand -58.9149 11.4139
rfingers 7.12502
rthumb -31.1182 -375.965
lclavicle 1.51871e-013 -3.02153e-014
lhumerus -12.2061 -24.4606 87.1103
lradius 131.511
lwrist 43.3079
lhand -26.4286 34.5687
lfingers 7.12502
lthumb 0.131782 64.5484
rfemur -18.6611 1.70987 17.6753
rtibia 37.3976
rfoot -25.9282 -31.7673
rtoes -0.129555
lfemur -33.7982 6.9554 -26.3472
ltibia 30.7357
lfoot -13.4471 16.9341
ltoes 12.9472
3525
root 4.83248 18.6862 -1.2325 -165.259 64.6283 179.592
lowerback 13.6319 4.86437 -0.984715
upperback 7.20692 6.8094 2.00017
thorax -0.371286 3.53862 1.68602
lowerneck -5.82811 -11.419 -7.10704
upperneck 19.1925 -16.3637 11.7396
head 8.50035 -7.10894 3.43713
rclavicle -1.03368e-013 6.36111e-015
rhumerus -11.7428 20.648 -87.1518
rradius 58.7245
rwrist 19.4275
rhand -59.2827 11.7643
rfingers 7.12502
rthumb -31.4687 -375.547
lclavicle -1.03368e-013 6.36111e-015
lhumerus -11.9614 -23.1919 86.9949
lradius 131.122
lwrist 44.622
lhand -26.8533 35.2854
lfingers 7.12502
lthumb -0.278398 65.265
rfemur -18.6578 1.93204 17.7231
rtibia 37.0913
rfoot -26.1857 -32.3516
rtoes -0.473553
lfemur -33.7578 6.99159 -26.3199
ltibia 30.6282
lfoot -13.38 17.1753
ltoes 12.9553
3526
root 4.8103 18.6873 -1.19959 -165.302 64.8346 179.657
lowerback 13.7872 4.80706 -0.802718
upperback 7.22069 6.75648 1.96212
thorax -0.412873 3.51851 1.54149
lowerneck -5.95287 -11.4604 -6.87633
upperneck 19.2266 -16.416 11.5451
head 8.50196 -7.12944 3.3244
rclavicle -2.38542e-015 -3.18055e-015
rhumerus -11.2473 20.5217 -87.164
rradius 58.6643
rwrist 19.5576
rhand -59.2297 11.3912
rfingers 7.12502
rthumb -31.4182 -375.93
lclavicle -2.38542e-015 -3.18055e-015
lhumerus -11.8468 -23.2024 86.7805
lradius 131.369
lwrist 48.5214
lhand -33.5513 34.9391
lfingers 7.12502
lthumb -6.74644 64.8116
rfemur -18.5637 2.02556 17.8963
rtibia 36.821
rfoot -26.7309 -32.7872
rtoes -1.89418
lfemur -33.7018 7.1069 -26.2213
ltibia 30.5233
lfoot -13.1099 17.2791
ltoes 12.3578
3527
root 4.79245 18.6897 -1.17517 -165.699 65.2176 179.291
lowerback 13.8112 4.8068 -0.782269
upperback 7.26135 6.75655 1.85472
thorax -0.367496 3.52069 1.42028
lowerneck -5.93937 -11.5278 -6.79382
upperneck 19.0957 -16.5119 11.5287
head 8.45652 -7.17991 3.29503
rclavicle 7.15625e-015 6.36111e-015
rhumerus -10.7446 20.4059 -87.1504
rradius 58.5894
rwrist 19.8401
rhand -59.3014 11.5842
rfingers 7.12502
rthumb -31.4865 -375.723
lclavicle 7.15625e-015 6.36111e-015
lhumerus -11.1223 -20.8439 86.0172
lradius 130.696
lwrist 46.5175
lhand -26.4014 37.3265
lfingers 7.12502
lthumb 0.158041 67.3062
rfemur -18.5301 1.92142 17.8068
rtibia 36.5673
rfoot -26.5255 -33.0894
rtoes -3.88736
lfemur -33.6287 7.08472 -26.3302
ltibia 30.4173
lfoot -13.0738 17.6197
ltoes 11.9962
3528
root 4.77357 18.6947 -1.15286 -165.952 65.6822 179.04
lowerback 13.818 4.76801 -0.689177
upperback 7.2744 6.70983 1.66857
thorax -0.323412 3.50136 1.18503
lowerneck -5.87008 -11.5032 -6.62249
upperneck 18.9137 -16.5075 11.6197
head 8.37547 -7.17139 3.3046
rclavicle -4.6118e-014 -4.69132e-014
rhumerus -10.2353 20.3675 -87.3258
rradius 58.5436
rwrist 20.1563
rhand -59.4254 12.3732
rfingers 7.12502
rthumb -31.6047 -374.911
lclavicle -4.6118e-014 -4.69132e-014
lhumerus -10.7836 -19.6903 85.3774
lradius 130.55
lwrist 48.0283
lhand -26.436 37.5411
lfingers 7.12502
lthumb 0.124621 67.5208
rfemur -18.5504 1.81561 17.7058
rtibia 36.3304
rfoot -26.2902 -33.0744
rtoes -3.642
lfemur -33.5736 6.98639 -26.3633
ltibia 30.2786
lfoot -13.1344 18.1199
ltoes 11.9679
